<?xml version="1.0" encoding="utf-8"?>
<!-- Generator: Adobe Illustrator 25.4.1, SVG Export Plug-In . SVG Version: 6.00 Build 0)  -->
<svg version="1.1" id="Layer_1" xmlns="http://www.w3.org/2000/svg" xmlns:xlink="http://www.w3.org/1999/xlink" x="0px" y="0px"
	 viewBox="0 0 296.3 107.4" style="enable-background:new 0 0 296.3 107.4;" xml:space="preserve">
<style type="text/css">
	.st0{fill-rule:evenodd;clip-rule:evenodd;fill:#BED730;}
	.st1{fill-rule:evenodd;clip-rule:evenodd;fill:#2E3192;}
	.st2{fill:#262223;}
	.st3{fill:#2F398F;stroke:#2E3A8F;stroke-width:0.5;stroke-miterlimit:10;}
	.st4{fill:#2F398F;stroke:#2E3A8F;stroke-width:0.2789;stroke-miterlimit:10;}
	.st5{fill:#2F398F;}
</style>
<g>
	<path class="st0" d="M46.8,6.1c-28,7-44,31-36.4,55.7c4.9,15.9,17,28.5,32.2,35c20.2,8.7,46.8,8.5,66.3-8c1.2-1.1,2.4-2.3,3.4-3.6
		c-23.1,19-64.5,19.5-86.4-6.3c-11.2-13.2-15.5-30-6.7-45.9C25.1,22.4,36.6,15.4,54,11.7L46.8,6.1L46.8,6.1z"/>
	<path class="st1" d="M111.2,86.8c-28.4,34.5-85.7,19.3-103.5-14C-8.5,37,13.1,7.6,40.6,1.3l6.2,4.9c-28,7-44,31-36.4,55.7
		c4.9,15.9,17,28.5,32.2,35C63.6,105.9,91.5,105.2,111.2,86.8L111.2,86.8z"/>
	<path class="st2" d="M40.5,45.4c1.1,0.2,1.2-0.7,1.5-1.2c3.2-4.4,6.6-8.5,11-11.7c2.1-1.5,4.4-2.6,7.1-2.5c2.3-0.1,4.2,1.6,4.3,3.8
		l0,0c0,0.1,0,0.2,0,0.3c0.1,1.6-0.2,3.2-0.8,4.7c-0.8,2.1-1.6,4.3-2.5,6.5c1,0.1,1.1-0.7,1.5-1.2c3.2-4.5,6.5-8.8,11.1-11.8
		c2.1-1.6,4.7-2.4,7.3-2.3c2.5-0.1,4.7,1.9,4.8,4.5l0,0c0,0.1,0,0.3,0,0.4c-0.1,2.6-0.7,5.2-1.8,7.6c-2.1,5-4.3,10-6.4,15.1
		c-0.2,0.5-0.4,1-0.6,1.5s-0.4,0.8,0,1.2s0.9,0.1,1.2,0c1.9-1,3.7-2.3,5.2-3.8c0.4-0.4,0.7-0.7,1-1.1c0.5-0.5,1-1.2,1.8-0.5
		s0.5,1.3,0.1,2.1c-1.5,2.3-3.5,4.4-5.8,5.9c-2.8,2-6,3.2-9.4,3.6c-3.1,0.3-4.8-1.8-3.7-4.6c2.6-6.5,5.4-13,8-19.5
		c0.9-1.8,1.5-3.8,1.8-5.9c0.2-2-0.7-2.6-2.5-1.7c-2,1.2-3.8,2.7-5.3,4.5c-4.7,5.2-8,11.3-11.2,17.4c-1.4,2.7-2.7,5.3-4.1,8
		c-1.1,2-5.3,2.5-6.9,0.8c-0.7-0.8-0.3-1.6,0-2.3c3-7.6,5.9-15.3,8.9-22.9c0.6-1.2,1-2.5,1.2-3.8c0.1-1.8-0.7-2.4-2.3-1.8
		c-1.6,0.7-3.1,1.7-4.3,3c-3.5,3.5-6.5,7.5-8.9,11.8c-2.8,4.8-5.1,9.8-7.5,14.8c-1.2,2.2-4,3-6.2,1.7c-0.2-0.1-0.4-0.2-0.5-0.3
		c-1-0.8-0.5-1.7-0.2-2.6c2.7-7.4,5.3-14.9,8-22.3c0.4-1,0.8-2.1,1.1-3.1c0.5-1.8,0-2.3-1.8-1.9c-1.3,0.3-2.5,1-3.5,1.9
		c-0.6,0.5-1.1,1.1-1.7,1.6s-0.9,1.9-2.1,0.9s-0.3-1.8,0.2-2.6c2.9-4.7,8-7.5,13.5-7.5c3.4-0.1,4.6,1.6,3.4,4.7
		C43.3,38.4,41.9,41.8,40.5,45.4z"/>
	<path class="st2" d="M108.4,63.3c1.8-2.9,3.3-6,4.4-9.2c2.6-6.7,4.4-13.7,5.3-20.9c0.3-2.4,1.2-3.2,3.1-3c2.9,0.4,4,1.6,3.6,4.1
		c-0.7,3.6-1.8,7.2-3.2,10.6c-5.4,13.4-13,25.8-22.6,36.6c-3.1,3.4-6.8,6.2-11.6,7.1c-2,0.5-4,0.1-5.7-1c-2.1-1.5-2.5-4.4-1-6.4l0,0
		c0.3-0.4,0.6-0.7,1-1c1.5-1.2,3.7-1,4.9,0.5l0,0c0.2,0.2,0.3,0.3,0.4,0.5c1.9,3.1,4.2,3,7.3,0.6c2.5-2,3.8-4.8,4.9-7.6
		c1.6-4.4,2.4-9,2.5-13.7c0.4-6.4,0.1-12.8-0.8-19.1c-0.1-1-0.4-2-0.9-3c-0.8-1.7-1.9-2-3.2-0.6c-1.3,1.4-2.3,3-3.1,4.7
		c-0.4,0.9-0.8,1.6-2,1.1s-0.7-1.3-0.4-2.1c1.3-3.5,3-6.8,5.8-9.3c0.9-0.8,2-1.4,3.2-1.8c2.8-0.9,4.9-0.1,6.4,2.4
		c1.8,3,2.3,6.4,2.4,9.8c0.4,6.6,0.1,13.2-0.9,19.8C108.2,62.6,108,62.9,108.4,63.3z"/>
	<path class="st3" d="M126.4,53.8l0.2-0.5h9l-0.2,0.5c-0.7,0-1.3,0.1-1.9,0.5c-0.6,0.6-1,1.4-1.1,2.3L129,68.5
		c-0.2,0.5-0.3,1.1-0.4,1.7c0,0.3,0.1,0.6,0.4,0.8c0.6,0.3,1.2,0.4,1.9,0.4l-0.1,0.5h-9.2l0.2-0.5c0.7,0.1,1.4-0.1,2-0.5
		c0.6-0.6,1-1.4,1.2-2.3l3.4-11.8c0.2-0.5,0.3-1.1,0.3-1.6c0-0.3-0.1-0.6-0.4-0.8C127.6,54,127,53.8,126.4,53.8z"/>
	<path class="st3" d="M137.9,53.3h14.8l-1.4,5h-0.5c0-0.3,0-0.5,0-0.7c0.1-0.8-0.2-1.6-0.8-2.2c-0.8-0.6-1.8-0.9-2.8-0.9l-4.1,13.9
		c-0.2,0.6-0.3,1.1-0.3,1.7c0,0.3,0.2,0.6,0.4,0.8c0.5,0.3,1.1,0.4,1.7,0.3l-0.1,0.5h-9.2l0.2-0.5c0.7,0.1,1.4-0.1,2-0.5
		c0.6-0.7,1-1.5,1.2-2.4l4.1-13.9c-1.2,0-2.5,0.3-3.6,0.9c-1.1,0.7-2,1.7-2.6,2.9h-0.5L137.9,53.3z"/>
	<path class="st3" d="M158.4,62.8l-1.6,5.6c-0.2,0.6-0.3,1.2-0.4,1.8c0,0.3,0.2,0.6,0.4,0.8c0.5,0.3,1.2,0.4,1.8,0.3l-0.2,0.5h-8.9
		l0.2-0.5c0.7,0.1,1.4-0.1,2-0.5c0.6-0.7,1-1.5,1.1-2.3l3.4-11.9c0.2-0.5,0.3-1,0.3-1.5c0-0.3-0.1-0.6-0.4-0.8
		c-0.5-0.3-1.1-0.4-1.6-0.4l0.1-0.5h7.6c2.2,0,3.7,0.4,4.6,1.1c0.9,0.7,1.4,1.8,1.3,2.9c0,1.3-0.6,2.5-1.6,3.4
		c-1,0.8-2.2,1.4-3.5,1.6l1.7,5.6c0.2,1,0.6,1.9,1.2,2.7c0.5,0.4,1.1,0.5,1.7,0.5v0.5H162l-2.6-9H159L158.4,62.8z M158.6,61.9h0.8
		c1.2,0,2.4-0.5,3.3-1.4c0.9-1,1.3-2.3,1.3-3.6c0.1-0.7-0.2-1.5-0.7-2s-1.1-0.7-1.8-0.7h-0.6L158.6,61.9z"/>
	<path class="st3" d="M175.9,72.2c-1.3,0.1-2.5-0.3-3.6-0.9c-0.9-0.6-1.6-1.5-2.1-2.5c-0.4-1-0.7-2-0.7-3.1c0-2.1,0.6-4.2,1.7-6.1
		c1.1-2,2.7-3.7,4.7-4.9c1.7-1.2,3.7-1.8,5.8-1.8c1.1,0,2.2,0.3,3.2,0.8s1.8,1.4,2.3,2.4c0.5,0.9,0.8,1.9,0.8,3
		c-0.1,2.5-0.8,4.9-2.2,6.9c-1.2,2.1-2.9,3.8-4.9,5C179.4,71.8,177.6,72.3,175.9,72.2z M181.2,54c-0.6,0-1.3,0.1-1.8,0.4
		c-0.6,0.3-1.1,0.8-1.6,1.3c-0.7,0.8-1.2,1.7-1.7,2.6c-0.7,1.5-1.2,3-1.6,4.6c-0.4,1.6-0.7,3.2-0.7,4.9c-0.1,0.9,0.2,1.8,0.7,2.5
		c0.4,0.6,1.1,0.9,1.8,0.9c0.9,0,1.9-0.3,2.5-1c1.6-1.6,2.7-3.6,3.4-5.8c0.8-2.2,1.3-4.5,1.3-6.8c0.1-1-0.2-1.9-0.7-2.7
		C182.5,54.3,181.9,54,181.2,54z"/>
	<path class="st3" d="M198.1,53.3l5.8,12.3l2.6-8.9c0.1-0.4,0.2-0.9,0.2-1.3c0-0.4-0.1-0.8-0.4-1.1c-0.4-0.3-0.9-0.5-1.5-0.5
		l0.2-0.5h5.9l-0.1,0.5c-0.7,0-1.3,0.2-1.8,0.6c-0.6,0.6-1.1,1.4-1.2,2.2L203.1,72h-0.5l-7.4-15.7l-3.6,12.3
		c-0.1,0.4-0.2,0.7-0.2,1.1s0.2,0.9,0.5,1.2c0.4,0.3,1,0.5,1.5,0.4l-0.1,0.5h-6l0.1-0.5c0.4,0,0.7,0,1.1-0.1
		c0.4-0.2,0.8-0.5,1.1-0.8c0.4-0.5,0.7-1.1,0.9-1.8l3.9-13.4c-0.3-0.4-0.8-0.7-1.2-1c-0.5-0.2-1-0.3-1.5-0.2l0.2-0.5L198.1,53.3z"/>
	<path class="st3" d="M222.1,71.8h-14.7l0.2-0.5c0.7,0.1,1.4-0.1,1.9-0.5c0.6-0.7,1-1.4,1.1-2.3l3.4-11.9c0.2-0.5,0.3-1,0.3-1.5
		c0-0.3-0.1-0.7-0.4-0.9c-0.5-0.3-1-0.4-1.6-0.4l0.2-0.5h8.9l-0.2,0.5c-0.7,0-1.4,0.2-1.9,0.6c-0.6,0.6-1,1.4-1.1,2.2L215,67.5
		c-0.3,0.8-0.5,1.7-0.6,2.5c0,0.2,0.1,0.4,0.3,0.5c0.3,0.2,0.6,0.3,1,0.2c1.5,0,3-0.3,4.4-1s2.7-1.8,3.6-3.1h0.6L222.1,71.8z"/>
	<path class="st3" d="M229.2,53.8l0.2-0.5h9l-0.2,0.5c-0.7,0-1.3,0.2-1.9,0.5c-0.6,0.6-1,1.4-1.1,2.3l-3.4,11.8
		c-0.2,0.5-0.3,1.1-0.4,1.7c0,0.3,0.1,0.6,0.4,0.8c0.6,0.3,1.2,0.4,1.9,0.4l-0.1,0.5h-9.2l0.2-0.5c0.7,0.1,1.4-0.1,2-0.5
		c0.6-0.6,1-1.4,1.2-2.3l3.5-11.8c0.2-0.5,0.3-1.1,0.3-1.6c0-0.3-0.1-0.6-0.4-0.8C230.5,53.9,229.8,53.8,229.2,53.8z"/>
	<path class="st3" d="M246.1,53.3l5.8,12.3l2.6-8.9c0.1-0.4,0.2-0.9,0.2-1.3c0-0.4-0.1-0.8-0.4-1.1c-0.4-0.3-0.9-0.5-1.5-0.5
		l0.2-0.5h5.9l-0.1,0.5c-0.7,0-1.3,0.2-1.8,0.6c-0.6,0.6-1.1,1.4-1.2,2.2L251.1,72h-0.5l-7.5-15.7l-3.6,12.3
		c-0.1,0.4-0.2,0.7-0.2,1.1s0.2,0.9,0.5,1.2c0.4,0.3,1,0.5,1.5,0.4l-0.1,0.5h-6l0.1-0.5c0.4,0,0.7,0,1.1-0.1
		c0.4-0.2,0.8-0.5,1.1-0.8c0.4-0.5,0.7-1.1,0.9-1.8l3.9-13.4c-0.3-0.4-0.8-0.7-1.2-1c-0.5-0.2-1-0.3-1.5-0.2l0.2-0.5L246.1,53.3z"/>
	<path class="st3" d="M266.9,54.3l-2,7.2h0.6c1.2,0.1,2.5-0.1,3.6-0.6c0.9-0.6,1.5-1.4,1.9-2.3h0.5l-2.1,7.2H269
		c0.1-0.4,0.1-0.8,0.1-1.2c0-0.5-0.1-0.9-0.5-1.2c-0.3-0.3-0.7-0.6-1.2-0.7c-0.6-0.1-1.3-0.2-1.9-0.1h-1.1l-1.8,6.2
		c-0.1,0.4-0.2,0.8-0.2,1.2c0,0.2,0.1,0.4,0.3,0.5c0.5,0.2,1.1,0.3,1.6,0.3c1.5,0,3-0.3,4.4-1s2.7-1.7,3.7-3h0.6l-2,5.1h-15.8
		l0.2-0.5c0.7,0.1,1.4-0.1,2-0.5c0.6-0.7,1-1.4,1.2-2.3l3.5-11.9c0.2-0.5,0.3-1,0.3-1.6c0-0.3-0.1-0.6-0.4-0.8
		c-0.5-0.3-1.1-0.4-1.7-0.4l0.1-0.5h14.7L274,58h-0.5c0-0.7-0.1-1.3-0.4-1.9c-0.4-0.6-0.9-1-1.5-1.3c-1-0.3-2-0.5-3.1-0.4
		L266.9,54.3L266.9,54.3z"/>
	<path class="st4" d="M286.1,41.1c4.5,0,8.1,3.6,8,8.1s-3.6,8.1-8.1,8c-4.4,0-8-3.6-8-8.1C278,44.7,281.7,41.1,286.1,41.1
		L286.1,41.1z M292.5,49.2c0-3.6-2.9-6.4-6.4-6.4c-3.6,0-6.4,2.9-6.4,6.4c0,3.6,2.9,6.4,6.4,6.4S292.5,52.8,292.5,49.2L292.5,49.2z"
		/>
	<path class="st5" d="M289.1,53.7h-1.8c-0.1,0-0.1-0.1-0.1-0.1c-0.5-1-1-2-1.5-3c0-0.1-0.2-0.2-0.3-0.2c-0.1,0-0.3,0-0.4,0
		s-0.1,0-0.1,0.1v3c0,0.2,0,0.2-0.2,0.2h-1.3c-0.1,0-0.1,0-0.1-0.1v-8.9c0-0.1,0-0.1,0.1-0.1h2.8c1.6,0.1,2.8,1.6,2.7,3.2
		c-0.1,1-0.6,1.8-1.5,2.3c-0.1,0-0.1,0.1,0,0.2L289.1,53.7L289.1,53.7z M285.7,48.7c0.2,0,0.5,0,0.8,0c0.6-0.1,1-0.7,1-1.3
		s-0.5-1.2-1.2-1.2H285c-0.1,0-0.1,0-0.1,0.1v2.4c0,0.1,0,0.1,0.1,0.1L285.7,48.7z"/>
</g>
<g>
	<path d="M137.7,86.2l-2.5,12.6h-2.8l0.3-1.3c-1.1,1-2.5,1.5-4.1,1.5c-1.1,0-2-0.2-2.9-0.6c-0.9-0.4-1.5-1.1-2-1.9s-0.7-1.9-0.7-3
		c0-1.4,0.3-2.6,0.9-3.8c0.6-1.1,1.5-2,2.6-2.6s2.3-0.9,3.6-0.9c2,0,3.4,0.6,4.3,2l0.4-1.9L137.7,86.2L137.7,86.2z M131.5,95.9
		c0.6-0.4,1.1-0.9,1.6-1.6c0.4-0.7,0.6-1.5,0.6-2.4c0-1-0.3-1.8-0.9-2.4c-0.6-0.6-1.4-0.9-2.4-0.9c-0.9,0-1.6,0.2-2.2,0.6
		c-0.6,0.4-1.1,0.9-1.6,1.6c-0.4,0.7-0.6,1.5-0.6,2.4c0,1,0.3,1.8,0.9,2.4c0.6,0.6,1.4,0.9,2.4,0.9
		C130.1,96.5,130.9,96.3,131.5,95.9z"/>
	<path d="M151.1,86.8c0.9,0.4,1.5,1.1,2,1.9s0.7,1.8,0.7,2.9c0,1.4-0.3,2.6-0.9,3.8c-0.6,1.1-1.5,2-2.6,2.6
		c-1.1,0.6-2.3,0.9-3.6,0.9c-1,0-1.9-0.1-2.6-0.5c-0.7-0.4-1.3-0.9-1.7-1.5l-1.3,6.4h-2.9l3.4-17.2h2.8l-0.3,1.4
		c1.1-1,2.5-1.5,4.1-1.5C149.3,86,150.2,86.3,151.1,86.8z M148.7,95.9c0.6-0.4,1.1-0.9,1.6-1.6c0.4-0.7,0.6-1.5,0.6-2.4
		c0-1-0.3-1.8-0.9-2.4c-0.6-0.6-1.4-0.9-2.4-0.9c-0.9,0-1.6,0.2-2.2,0.6c-0.6,0.4-1.1,0.9-1.6,1.6c-0.4,0.7-0.6,1.5-0.6,2.4
		c0,1,0.3,1.8,0.9,2.4c0.6,0.6,1.4,0.9,2.4,0.9C147.3,96.5,148,96.3,148.7,95.9z"/>
	<path d="M168,87.2c0.9,0.7,1.2,1.8,1.2,3.1c0,0.4-0.1,0.9-0.1,1.5l-1.4,7h-2.9l1.4-6.9c0.1-0.3,0.1-0.6,0.1-1
		c0-1.5-0.9-2.3-2.5-2.3c-1.1,0-2,0.3-2.7,0.9c-0.7,0.6-1.2,1.5-1.4,2.7l-1.4,6.6h-2.9l2.5-12.6h2.8l-0.3,1.4c1.1-1,2.6-1.6,4.4-1.6
		C166.1,86,167.1,86.5,168,87.2z"/>
	<path d="M174.6,98.3c-0.9-0.5-1.6-1.1-2.1-1.9c-0.5-0.9-0.8-1.8-0.8-2.9c0-1.4,0.3-2.6,0.9-3.8c0.6-1.1,1.5-2,2.6-2.6
		c1.1-0.6,2.4-0.9,3.9-0.9c1.2,0,2.3,0.2,3.2,0.7c0.9,0.4,1.6,1.1,2.1,1.9s0.8,1.8,0.8,2.9c0,1.4-0.4,2.6-1,3.8s-1.6,2-2.7,2.6
		c-1.1,0.6-2.4,1-3.9,1C176.6,99,175.5,98.8,174.6,98.3z M180.2,95.9c0.6-0.4,1.1-0.9,1.6-1.6c0.4-0.7,0.6-1.5,0.6-2.4
		c0-1-0.3-1.8-0.9-2.4c-0.6-0.6-1.4-0.9-2.4-0.9c-0.9,0-1.6,0.2-2.2,0.6c-0.6,0.4-1.1,0.9-1.6,1.6c-0.4,0.7-0.6,1.5-0.6,2.4
		c0,1,0.3,1.8,0.9,2.4c0.6,0.6,1.4,0.9,2.4,0.9C178.8,96.5,179.6,96.3,180.2,95.9z"/>
	<path d="M201.9,91.6l4.4,7.2h-3.4l-3.4-5.4l-2.6,2.1l-0.6,3.4h-2.9l3.5-17.5h2.9l-2.1,10.5l6.9-5.6h4L201.9,91.6z"/>
	<path d="M222.4,86.2l-2.5,12.6h-2.8l0.3-1.3c-1.1,1-2.5,1.5-4.1,1.5c-1.1,0-2-0.2-2.9-0.6c-0.9-0.4-1.5-1.1-2-1.9s-0.7-1.9-0.7-3
		c0-1.4,0.3-2.6,0.9-3.8c0.6-1.1,1.5-2,2.6-2.6s2.3-0.9,3.6-0.9c2,0,3.4,0.6,4.3,2l0.4-1.9L222.4,86.2L222.4,86.2z M216.2,95.9
		c0.6-0.4,1.1-0.9,1.6-1.6c0.4-0.7,0.6-1.5,0.6-2.4c0-1-0.3-1.8-0.9-2.4c-0.6-0.6-1.4-0.9-2.4-0.9c-0.9,0-1.6,0.2-2.2,0.6
		c-0.6,0.4-1.1,0.9-1.6,1.6c-0.4,0.7-0.6,1.5-0.6,2.4c0,1,0.3,1.8,0.9,2.4c0.6,0.6,1.4,0.9,2.4,0.9
		C214.9,96.5,215.6,96.3,216.2,95.9z"/>
	<path d="M234.6,98.2c-1.2-0.6-2.1-1.4-2.8-2.5s-1-2.3-1-3.7c0-1.9,0.4-3.6,1.3-5.1s2.1-2.7,3.6-3.6c1.6-0.9,3.3-1.3,5.3-1.3
		c1.4,0,2.7,0.2,3.8,0.7c1.1,0.5,1.9,1.1,2.5,2.1l-2.2,1.9c-0.9-1.3-2.4-1.9-4.3-1.9c-1.4,0-2.6,0.3-3.6,0.9
		c-1.1,0.6-1.9,1.5-2.4,2.6c-0.6,1.1-0.9,2.3-0.9,3.6c0,1.4,0.4,2.5,1.4,3.4c0.9,0.8,2.1,1.2,3.9,1.2c1.9,0,3.5-0.6,4.7-1.9l1.8,1.9
		c-0.8,0.9-1.8,1.6-2.9,2c-1.1,0.4-2.4,0.6-3.9,0.6C237.3,99,235.9,98.8,234.6,98.2z"/>
	<path d="M259.1,95h-8.4l-2.4,3.9h-3.3l10.7-16.6h3.1l4.1,16.6h-3.1L259.1,95z M258.5,92.6l-1.6-7.3l-4.6,7.3H258.5z"/>
</g>
</svg>
